<svg width="58" height="58" viewBox="0 0 58 58" fill="none" xmlns="http://www.w3.org/2000/svg">
<rect width="58" height="58" rx="29" fill="#269D99"/>
<path d="M29.2241 15.9537C33.82 16.0866 37.4062 19.8865 37.2829 24.4932C37.1629 28.9851 33.1919 32.6866 28.6769 32.516C24.137 32.3444 20.5945 28.4888 20.7177 23.8536C20.8362 19.3998 24.6877 15.8227 29.2241 15.9537ZM29.0066 18.5186C25.8385 18.5189 23.3141 21.0684 23.3474 24.2334C23.3804 27.3715 26.0305 30.0273 29.072 29.9706C32.0707 29.9149 34.6712 27.2569 34.6687 24.2502C34.6661 21.0696 32.1455 18.5183 29.0066 18.5186Z" fill="white"/>
<path d="M14.9699 42.5519L14.9506 42.5347C14.3609 42.0083 14.3474 41.0653 14.9254 40.5253C17.341 38.27 20.1952 36.9759 23.353 36.3155C30.175 34.8883 36.6778 35.5172 42.5314 39.8041C42.675 39.9094 42.847 40.0538 43.0235 40.2106C43.6215 40.7422 43.663 41.6839 43.112 42.2674C42.646 42.7611 41.9038 42.8378 41.3544 42.4453C39.9893 41.4707 37.423 39.7576 35.6383 39.2854C29.549 37.6746 23.65 37.9183 18.1471 41.4216C17.636 41.747 17.1655 42.1398 16.6377 42.5805C16.1488 42.9889 15.4455 42.9766 14.9699 42.5519Z" fill="white"/>
</svg>
