<svg width="40" height="40" viewBox="0 0 40 40" fill="none" xmlns="http://www.w3.org/2000/svg">
<path d="M20.0766 39.9909C17.0408 39.992 14.0035 40.0487 10.9711 39.8618C9.58944 39.7767 8.21531 39.6309 6.86039 39.3137C3.30254 38.4809 1.29929 36.2045 0.594131 32.6763C0.18192 30.6132 0.0784788 28.5214 0.0592602 26.4321C0.0119202 21.2514 -0.0864339 16.0689 0.164397 10.8905C0.230249 9.5311 0.396293 8.18022 0.707182 6.84743C1.53782 3.28518 3.81509 1.27518 7.34185 0.581849C9.77569 0.103318 12.2443 0.0429363 14.7109 0.0224319C18.2413 -0.00698133 21.7725 -0.0081126 25.3031 0.0228561C27.7458 0.0443504 30.1891 0.104874 32.6023 0.572091C37.2243 1.46693 38.988 4.31266 39.5599 8.16042C39.9556 10.8217 39.9927 13.5046 39.9841 16.1874C39.9704 20.4498 40.0829 24.7137 39.8547 28.9737C39.7792 30.3813 39.6231 31.7788 39.3028 33.1576C38.4753 36.7194 36.198 38.7287 32.6711 39.4244C30.2369 39.9046 27.7686 39.9456 25.3021 39.9855C23.5607 40.0137 21.8186 39.991 20.0767 39.991L20.0766 39.9909Z" fill="black"/>
<path d="M19.9964 32.5831C17.9379 32.5831 15.8794 32.5872 13.821 32.5821C10.1385 32.5731 7.43223 29.8689 7.42714 26.1867C7.42149 22.0669 7.42206 17.9472 7.427 13.8274C7.43138 10.1196 10.1353 7.42221 13.851 7.41811C17.9532 7.41359 22.0553 7.4133 26.1574 7.41811C29.8703 7.4225 32.5692 10.1219 32.5736 13.8349C32.5784 17.9398 32.5778 22.0448 32.5737 26.1497C32.5699 29.8871 29.8722 32.5767 26.1276 32.5823C24.0839 32.5852 22.0402 32.5828 19.9965 32.5828L19.9964 32.5831ZM30.0742 20.0416C30.0742 18.0115 30.081 15.9815 30.0682 13.9515C30.0657 13.5556 30.0332 13.1483 29.9358 12.7664C29.4828 10.9876 28.0586 9.92375 26.139 9.92107C22.0521 9.91513 17.965 9.91612 13.8781 9.92474C13.5118 9.92545 13.1356 9.96222 12.7814 10.0513C11.0099 10.4969 9.93122 11.9316 9.92825 13.8456C9.92175 17.9502 9.92274 22.0547 9.93221 26.1593C9.93305 26.525 9.97799 26.901 10.0704 27.2544C10.5346 29.03 11.9519 30.0773 13.8833 30.0796C17.9554 30.0844 22.0276 30.0847 26.0997 30.0752C26.4801 30.0744 26.8716 30.0341 27.2389 29.9389C29.0015 29.4824 30.0619 28.0709 30.0716 26.1763C30.0821 24.1315 30.074 22.0865 30.0742 20.0416Z" fill="white"/>
<path d="M13.7327 20.0002C13.647 16.5293 16.562 13.693 20.0335 13.7097C23.4794 13.7263 26.2966 16.5591 26.2856 20.0218C26.2747 23.4551 23.4665 26.2957 19.9894 26.2897C16.5461 26.2836 13.6492 23.4666 13.7326 20L13.7327 20.0002ZM23.7697 20.0265C23.7794 17.8872 22.1621 16.2411 20.038 16.2279C17.8975 16.2146 16.2477 17.828 16.2306 19.9507C16.2132 22.1123 17.8382 23.7666 19.9843 23.7726C22.1193 23.7784 23.76 22.1547 23.7697 20.0265Z" fill="white"/>
<path d="M27.5374 13.6865C27.5493 14.3923 26.988 14.9673 26.287 14.9677C25.6084 14.9681 25.0419 14.4121 25.0293 13.7335C25.0163 13.0308 25.579 12.4588 26.2844 12.4574C26.9781 12.4561 27.526 12.9935 27.5376 13.6865H27.5374Z" fill="white"/>
</svg>
