<svg width="95" height="119" viewBox="0 0 95 119" fill="none" xmlns="http://www.w3.org/2000/svg">
<rect width="94.5479" height="119" fill="black"/>
<path d="M71.7096 83.7366C70.2636 83.0082 68.4367 82.7552 66.2802 82.9838C65.8421 83.0303 65.4779 83.2205 65.281 83.5057C65.1423 83.7064 65.0986 83.9415 65.1578 84.1674C65.2959 84.6944 65.9496 85.033 66.6775 84.9552C67.1854 84.9016 67.6389 84.8867 68.0443 84.901C63.5321 88.9752 55.6342 91.4685 47.0443 91.4685C38.4544 91.4685 30.5587 88.976 26.0466 84.9029C26.4627 84.8888 26.9069 84.9054 27.3768 84.9551C28.1055 85.033 28.759 84.6942 28.897 84.1674C28.9562 83.9414 28.9125 83.7063 28.7738 83.5056C28.5768 83.2204 28.2127 83.0302 27.7746 82.9838C25.6177 82.7552 23.7909 83.0084 22.3451 83.7367C21.2844 84.271 20.4666 85.0741 20.1575 85.8852C20.0713 86.1117 20.0919 86.354 20.2155 86.5676C20.3856 86.8613 20.7296 87.069 21.1602 87.1374C21.2561 87.1524 21.3544 87.1602 21.4522 87.1602C22.0545 87.1602 22.573 86.8778 22.7425 86.4579C22.7612 86.4115 22.9241 86.0373 23.4171 85.6691C28.3301 90.4883 37.3023 93.461 47.0443 93.461C56.7863 93.461 65.7475 90.4919 70.6623 85.678C71.1171 86.0246 71.2778 86.3723 71.3103 86.4525C71.4754 86.8772 71.9945 87.1624 72.6019 87.1624C72.6968 87.1624 72.7929 87.1551 72.8881 87.1405C73.3199 87.0739 73.6662 86.8662 73.838 86.5708C73.9629 86.3561 73.984 86.1126 73.8972 85.8852C73.5882 85.0742 72.7703 84.2709 71.7097 83.7366H71.7096Z" fill="white"/>
<path d="M27.9073 42.0472L30.5572 41.0282L32.1879 38.7862L32.5956 37.1558L32.3918 35.5252L31.9841 35.1176L32.3918 27.169L31.3726 26.3538L28.315 25.7424L24.646 25.5386L21.7922 26.5576L20.1615 28.5958V32.4682L20.5692 33.0796L20.1615 35.3215V39.1939L20.773 42.4549L27.9073 42.0473V42.0472ZM24.8498 27.7806L28.7227 27.9844L30.5572 28.392V31.4491L26.8881 30.4301L25.2574 30.8377L24.646 31.8568L26.2766 33.0796L29.1304 34.3025L30.7611 36.9521L29.5381 39.3978L28.315 39.8054L23.2191 40.0093V36.5444L25.2575 37.1559L27.9074 36.9521L28.5189 35.7292L24.0344 33.4872C23.3753 32.4274 23.0356 31.3405 23.0152 30.2262C23.321 29.0986 23.9325 28.2834 24.8498 27.7806Z" fill="white"/>
<path d="M37.8546 41.8439L44.3775 42.4554L46.2121 40.6211L46.4159 37.3601L47.0274 35.5258L46.6198 34.7105L45.8044 28.3924C45.451 27.4141 44.8395 26.8027 43.9698 26.5581H40.3008L37.447 27.1696L35.0009 28.3924L34.1856 31.2458V38.3791L35.4086 40.8249L37.8546 41.8439ZM37.0393 30.8382L38.8738 29.0039L42.5429 28.5962C43.5892 28.7797 44.2687 29.3232 44.5813 30.2267V32.4687L42.1353 32.8763L41.7275 32.6725V30.2267L41.1161 30.0229L39.4853 30.4305L39.0777 33.8954L39.2815 37.564L40.3007 38.7868L41.5237 38.1754L41.9314 36.7487H44.7851L44.989 38.7868C44.4386 39.7177 43.6911 40.1931 42.7467 40.2135L39.0777 39.8059C38.14 39.3712 37.4604 38.7598 37.0393 37.9716V30.8382Z" fill="white"/>
<path d="M56.6792 37.9715L56.4754 32.6724L54.6408 31.6533C54.1311 32.095 53.7235 32.5705 53.4178 33.08L53.0101 38.1753L55.0485 38.9905L56.6792 37.9715Z" fill="white"/>
<path d="M50.564 41.8438L53.6216 42.4553L56.883 42.2515L59.3291 41.4362L60.756 39.1943V32.6723L60.3482 29.819L58.7176 27.7809L55.8638 27.1694H52.3986L49.9525 27.9847L48.5257 31.0419V37.1562L48.9333 40.2133L50.564 41.8438ZM51.3794 31.8571C51.5832 30.4577 52.3306 29.5745 53.6216 29.2076L58.1061 29.4114L59.329 33.08L59.5329 37.7676C59.1592 39.1265 58.3438 39.8738 57.0869 40.0096H52.6024C51.6648 38.9838 51.1891 37.8288 51.1756 36.5448L51.3794 31.8571Z" fill="white"/>
<path d="M73.8423 29.819L72.2117 27.7809L69.3579 27.1694H65.8926L63.4466 27.9847L62.0197 31.0419V37.1562L62.4274 40.2133L64.0581 41.8438L67.1157 42.4553L70.3771 42.2515L72.8232 41.4362L74.2501 39.1943V32.6723L73.8423 29.819ZM70.5809 40.0095H66.0965C65.1588 38.9838 64.6831 37.8287 64.6695 36.5447L64.8734 31.8571C65.0773 30.4576 65.8246 29.5744 67.1157 29.2075L71.6001 29.4113L72.8231 33.0799L73.027 37.7676C72.6532 39.1264 71.8379 39.8737 70.5809 40.0095Z" fill="white"/>
<path d="M68.1349 31.6533C67.6253 32.095 67.2176 32.5705 66.9118 33.08L66.5041 38.1753L68.5425 38.9905L70.1733 37.9715L69.9694 32.6724L68.1349 31.6533Z" fill="white"/>
<path d="M31.04 64.3525L29.3212 65.2119L29.7509 69.9379L31.04 70.7972L40.0636 69.9379L38.7746 65.2119L31.04 64.3525Z" fill="white"/>
<path d="M44.3607 50.6039L39.6339 46.3075L25.454 45.8779C23.5343 46.7231 22.2453 48.012 21.5867 49.7447L20.7272 79.3898L22.0163 80.249L40.0636 78.5304L46.5092 77.2416V69.508L44.7904 61.7745L45.6497 56.1893L44.3607 50.6039ZM27.1727 75.0934V53.6115C27.8458 52.0218 28.8485 50.8762 30.1806 50.1743H36.1964L40.923 51.4633L42.2122 55.7597L40.923 60.4857L36.1964 62.2042L40.923 63.9227L42.6419 67.7895L43.5012 73.3748L27.1727 75.0934Z" fill="white"/>
<path d="M35.7665 58.7673L35.3368 55.3301C34.8642 53.2823 33.7181 52.1367 31.8993 51.8931C31.3978 54.0702 31.1115 56.7909 31.0399 60.0562H34.9072L35.7665 58.7673Z" fill="white"/>
<path d="M49.6572 45.4487L49.2275 46.308L49.6572 79.8198L53.9542 80.2494L68.9936 79.3902C71.6862 79.2902 73.1187 78.0012 73.2906 75.5234L72.8609 68.6492C72.5311 66.4151 71.6718 64.5535 70.2827 63.0639L69.4233 59.1971L70.7124 57.9083L72.8609 57.4785L74.1499 47.1673L72.4312 45.4487H49.6572ZM66.8451 53.1821L59.97 52.3229L57.8215 53.1821L59.5402 56.6193L65.556 57.4785L66.4155 59.1971L65.1263 60.0565L62.9779 59.6267L60.3997 60.4861V65.2121C61.2876 67.031 62.5766 68.0337 64.267 68.2195H68.9936L69.4233 70.7974C69.2085 72.9315 68.2058 74.3634 66.4155 75.0938L56.1027 75.5234L55.2432 50.1747L69.853 50.6043C69.5234 52.2799 68.5209 53.1392 66.8451 53.1821Z" fill="white"/>
</svg>
