<svg width="174" height="219" viewBox="0 0 174 219" fill="none" xmlns="http://www.w3.org/2000/svg">
<path d="M131.97 154.104C129.309 152.763 125.947 152.298 121.978 152.718C121.172 152.804 120.501 153.154 120.139 153.679C119.884 154.048 119.803 154.481 119.912 154.897C120.166 155.867 121.369 156.49 122.709 156.346C123.644 156.248 124.478 156.22 125.224 156.247C116.92 163.745 102.386 168.333 86.5773 168.333C70.769 168.333 56.2383 163.746 47.9345 156.25C48.7002 156.224 49.5176 156.255 50.3825 156.346C51.7235 156.49 52.9262 155.866 53.1801 154.897C53.2891 154.481 53.2087 154.048 52.9534 153.679C52.5909 153.154 51.9208 152.804 51.1145 152.718C47.1452 152.298 43.7832 152.764 41.1224 154.104C39.1704 155.087 37.6654 156.565 37.0966 158.058C36.9378 158.475 36.9757 158.921 37.2033 159.314C37.5162 159.854 38.1494 160.236 38.9418 160.362C39.1183 160.39 39.2993 160.404 39.4792 160.404C40.5876 160.404 41.5419 159.885 41.8538 159.112C41.8882 159.027 42.1881 158.338 43.0954 157.66C52.1369 166.529 68.6487 172 86.5773 172C104.506 172 120.997 166.536 130.042 157.677C130.879 158.314 131.175 158.954 131.235 159.102C131.539 159.884 132.494 160.408 133.612 160.408C133.787 160.408 133.963 160.395 134.139 160.368C134.933 160.246 135.57 159.863 135.887 159.32C136.117 158.925 136.155 158.476 135.996 158.058C135.427 156.565 133.922 155.087 131.97 154.104H131.97Z" fill="black"/>
<path d="M51.3589 77.3815L56.2355 75.5061L59.2366 71.3801L59.9869 68.3795L59.6117 65.3788L58.8614 64.6287L59.6117 50.0006L57.7361 48.5002L52.1092 47.3752L45.3569 47L40.105 48.8754L37.104 52.6262V59.7528L37.8542 60.8781L37.104 65.0039V72.1305L38.2293 78.1317L51.3589 77.3816V77.3815ZM45.732 51.126L52.8594 51.5011L56.2355 52.2512V57.8774L49.4832 56.002L46.4822 56.7522L45.3569 58.6276L48.3579 60.8781L53.6097 63.1286L56.6107 68.0047L54.36 72.5056L52.1092 73.2557L42.731 73.6309V67.2545L46.4823 68.3798L51.359 68.0047L52.4843 65.7541L44.2314 61.6281C43.0184 59.6777 42.3933 57.6776 42.3557 55.6268C42.9185 53.5516 44.0438 52.0514 45.732 51.126Z" fill="black"/>
<path d="M69.6652 77.0064L81.6695 78.1317L85.0457 74.7559L85.4208 68.7546L86.5462 65.3789L85.796 63.8785L84.2955 52.2511C83.6451 50.4507 82.5198 49.3255 80.9192 48.8754H74.1669L68.915 50.0007L64.4135 52.2511L62.9129 57.5023V70.6301L65.1637 75.131L69.6652 77.0064ZM68.1647 56.7522L71.5408 53.3764L78.2932 52.6262C80.2187 52.9638 81.4692 53.9641 82.0446 55.6269V59.7528L77.543 60.503L76.7927 60.1278V55.6269L75.6673 55.2518L72.6662 56.0019L71.916 62.3784L72.2911 69.1298L74.1668 71.3803L76.4176 70.2551L77.1678 67.6295H82.4197L82.7948 71.3803C81.782 73.0934 80.4063 73.9684 78.6683 74.0059L71.916 73.2557C70.1903 72.4557 68.9398 71.3305 68.1647 69.8801V56.7522Z" fill="black"/>
<path d="M104.309 69.8799L103.934 60.1278L100.557 58.2524C99.6195 59.0653 98.8693 59.9403 98.3066 60.878L97.5564 70.255L101.308 71.7553L104.309 69.8799Z" fill="black"/>
<path d="M93.0547 77.0064L98.6817 78.1317L104.684 77.7566L109.185 76.2563L111.811 72.1304V60.1278L111.061 54.8768L108.06 51.1259L102.808 50.0006H96.431L91.9294 51.501L89.3035 57.1272V68.3796L90.0537 74.0058L93.0547 77.0064ZM94.5553 58.6276C94.9304 56.0522 96.3058 54.4267 98.6817 53.7515L106.935 54.1265L109.185 60.878L109.56 69.5049C108.873 72.0057 107.372 73.3809 105.059 73.6309H96.8061C95.0805 71.7431 94.2051 69.6174 94.1802 67.2544L94.5553 58.6276Z" fill="black"/>
<path d="M135.895 54.8768L132.894 51.1259L127.642 50.0006H121.265L116.763 51.501L114.137 57.1272V68.3796L114.887 74.0058L117.888 77.0064L123.515 78.1317L129.518 77.7566L134.019 76.2563L136.645 72.1304V60.1278L135.895 54.8768ZM129.893 73.6307H121.64C119.914 71.743 119.039 69.6173 119.014 67.2543L119.389 58.6275C119.764 56.052 121.139 54.4266 123.515 53.7513L131.768 54.1264L134.019 60.8779L134.394 69.5047C133.706 72.0055 132.206 73.3808 129.893 73.6307Z" fill="black"/>
<path d="M125.391 58.2523C124.453 59.0652 123.703 59.9402 123.14 60.878L122.39 70.2549L126.141 71.7553L129.142 69.8799L128.767 60.1277L125.391 58.2523Z" fill="black"/>
<path d="M57.1239 118.43L53.9607 120.012L54.7516 128.709L57.1239 130.291L73.7304 128.709L71.3582 120.012L57.1239 118.43Z" fill="black"/>
<path d="M81.6385 93.1287L72.9397 85.2219L46.8438 84.4313C43.3111 85.9866 40.9388 88.3587 39.7267 91.5474L38.1449 146.104L40.5174 147.686L73.7304 144.523L85.5925 142.151V127.919L82.4293 113.686L84.0107 103.408L81.6385 93.1287ZM50.0068 138.198V98.6636C51.2456 95.7381 53.0908 93.6297 55.5424 92.3381H66.6135L75.3121 94.7102L77.6846 102.617L75.3121 111.314L66.6135 114.477L75.3121 117.64L78.4753 124.756L80.0568 135.035L50.0068 138.198Z" fill="black"/>
<path d="M65.8224 108.152L65.0317 101.826C64.1618 98.0576 62.0526 95.9493 58.7055 95.5009C57.7825 99.5075 57.2555 104.515 57.1238 110.524H64.2409L65.8224 108.152Z" fill="black"/>
<path d="M91.3859 83.6408L90.5951 85.222L91.3859 146.895L99.2938 147.686L126.971 146.104C131.927 145.92 134.563 143.548 134.879 138.988L134.088 126.338C133.482 122.226 131.9 118.8 129.344 116.059L127.762 108.942L130.135 106.571L134.088 105.78L136.461 86.8035L133.298 83.6408H91.3859ZM123.017 97.8729L110.365 96.2916L106.411 97.8729L109.574 104.198L120.645 105.78L122.227 108.942L119.854 110.524L115.9 109.733L111.156 111.315V120.012C112.79 123.359 115.162 125.205 118.273 125.547H126.971L127.762 130.291C127.367 134.218 125.521 136.853 122.227 138.198L103.248 138.988L101.666 92.3382L128.553 93.1288C127.946 96.2125 126.101 97.7938 123.017 97.8729Z" fill="black"/>
</svg>
