<svg width="384" height="103" viewBox="0 0 384 103" fill="none" xmlns="http://www.w3.org/2000/svg">
<path d="M333.884 0H50C22.3858 0 0 22.3858 0 50V52.658C0 80.2722 22.3858 102.658 50.0001 102.658H333.884C361.499 102.658 383.884 80.2722 383.884 52.658V50C383.884 22.3858 361.498 0 333.884 0Z" fill="#0069FF"/>
<path fill-rule="evenodd" clip-rule="evenodd" d="M105.288 26.5464C91.5627 25.1045 79.2647 35.0313 77.8189 48.7184C76.373 62.4056 86.3272 74.6697 100.052 76.1116C113.777 77.5535 126.075 67.6267 127.521 53.9395C127.702 52.2297 127.704 50.5056 127.529 48.795C126.338 37.0599 117.051 27.77 105.288 26.5464ZM104.478 64.5164C97.182 65.4926 90.4738 60.3853 89.4949 53.1095C88.516 45.8337 93.6374 39.1439 100.933 38.1677C108.229 37.1915 114.937 42.2988 115.916 49.5746C116.072 50.7339 116.074 51.9084 115.922 53.0681C115.141 59.0252 110.449 63.7191 104.478 64.516V64.5164ZM140.894 27.532C137.674 27.5397 135.07 30.1492 135.078 33.3604C135.079 33.7592 135.121 34.157 135.203 34.5475C135.752 37.2872 138.318 39.1592 141.113 39.1592H157.335L132.09 72.4758C131.535 73.207 131.679 74.2486 132.412 74.802C132.7 75.0191 133.05 75.1371 133.411 75.1385H173.011C175.804 75.1385 178.372 73.2672 178.92 70.5268C179.586 67.3845 177.571 64.2996 174.42 63.6359C174.029 63.5538 173.631 63.5116 173.232 63.5106H153.467L178.693 30.2198C179.253 29.4816 179.107 28.4306 178.367 27.8717C178.076 27.6524 177.722 27.533 177.358 27.532H140.894ZM299.131 27.666C296.43 28.3064 294.539 30.7328 294.583 33.501V52.8596L263.128 27.8974C262.405 27.3246 261.353 27.4453 260.778 28.1668C260.542 28.463 260.414 28.8301 260.416 29.2084V69.1793C260.372 71.9475 262.263 74.3742 264.964 75.0143C268.105 75.7034 271.211 73.7231 271.903 70.5905C271.994 70.1781 272.04 69.7566 272.039 69.3345V49.8085L303.494 74.771C304.217 75.3435 305.269 75.2227 305.843 74.5013C306.079 74.2051 306.206 73.8383 306.205 73.4603V33.3444C306.209 30.137 303.604 27.5344 300.388 27.531C299.965 27.5306 299.544 27.5758 299.131 27.6667V27.666ZM217.232 38.0459C230.536 38.0459 240.477 45.0576 240.477 51.3293C240.477 57.6011 230.536 64.6128 217.232 64.6128C203.928 64.6128 193.987 57.6011 193.987 51.3293C193.987 45.0576 203.928 38.0459 217.232 38.0459ZM217.232 26.4194C197.975 26.4194 182.363 37.5719 182.363 51.329C182.363 65.0861 197.974 76.2386 217.232 76.2386C236.49 76.2386 252.1 65.0861 252.1 51.329C252.1 37.5719 236.489 26.4194 217.232 26.4194Z" fill="white"/>
</svg>
