<svg width="521" height="297" viewBox="0 0 521 297" fill="none" xmlns="http://www.w3.org/2000/svg">
<rect width="521" height="297" fill="#269D99"/>
<path d="M326.616 213.548C322.741 211.596 317.845 210.917 312.065 211.53C310.891 211.655 309.915 212.164 309.387 212.929C309.016 213.467 308.898 214.097 309.057 214.702C309.427 216.115 311.179 217.022 313.13 216.814C314.491 216.67 315.707 216.63 316.793 216.668C304.7 227.587 283.533 234.269 260.512 234.269C237.491 234.269 216.33 227.589 204.237 216.673C205.352 216.635 206.542 216.68 207.802 216.813C209.755 217.022 211.506 216.114 211.876 214.702C212.035 214.096 211.918 213.466 211.546 212.929C211.018 212.164 210.042 211.654 208.868 211.53C203.087 210.918 198.191 211.596 194.317 213.548C191.474 214.98 189.282 217.132 188.454 219.306C188.223 219.913 188.278 220.562 188.609 221.135C189.065 221.922 189.987 222.478 191.141 222.662C191.398 222.702 191.662 222.723 191.924 222.723C193.538 222.723 194.927 221.966 195.382 220.841C195.432 220.717 195.869 219.714 197.19 218.727C210.357 231.642 234.403 239.61 260.512 239.61C286.621 239.61 310.637 231.652 323.809 218.751C325.028 219.68 325.459 220.612 325.546 220.826C325.988 221.965 327.38 222.729 329.007 222.729C329.262 222.729 329.519 222.709 329.775 222.67C330.932 222.492 331.86 221.935 332.32 221.144C332.655 220.568 332.712 219.915 332.479 219.306C331.651 217.132 329.459 214.98 326.616 213.548H326.616Z" fill="white"/>
<path d="M209.224 101.817L216.326 99.0861L220.696 93.0775L221.789 88.7078L221.242 84.3379L220.15 83.2455L221.242 61.9428L218.511 59.7579L210.317 58.1195L200.483 57.5731L192.835 60.3043L188.465 65.7665V76.1448L189.557 77.7836L188.465 83.7919V94.1702L190.103 102.91L209.224 101.817V101.817ZM201.029 63.5817L211.409 64.1279L216.326 65.2203V73.4137L206.492 70.6826L202.122 71.7751L200.483 74.5063L204.854 77.7836L212.502 81.0609L216.872 88.1619L213.594 94.7166L210.317 95.809L196.659 96.3553V87.0694L202.122 88.7081L209.224 88.1619L210.863 84.8844L198.844 78.8758C197.078 76.0355 196.167 73.1227 196.113 70.1362C196.932 67.114 198.571 64.9295 201.029 63.5817Z" fill="white"/>
<path d="M235.883 101.271L253.365 102.909L258.281 97.9933L258.828 89.2537L260.467 84.3376L259.374 82.1527L257.189 65.2199C256.242 62.598 254.603 60.9594 252.272 60.3038H242.439L234.791 61.9426L228.235 65.2199L226.05 72.8671V91.9848L229.328 98.5395L235.883 101.271ZM233.698 71.7747L238.614 66.8587L248.448 65.7661C251.252 66.2578 253.073 67.7145 253.911 70.136V76.1444L247.355 77.237L246.263 76.6906V70.136L244.624 69.5898L240.253 70.6822L239.161 79.9681L239.707 89.8001L242.439 93.0774L245.716 91.4388L246.809 87.6151H254.457L255.003 93.0774C253.529 95.5722 251.525 96.8464 248.994 96.9011L239.161 95.8085C236.648 94.6435 234.827 93.0049 233.698 90.8926V71.7747Z" fill="white"/>
<path d="M286.334 90.8938L285.788 76.6919L280.871 73.9608C279.505 75.1446 278.412 76.4189 277.593 77.7845L276.501 91.44L281.964 93.6249L286.334 90.8938Z" fill="white"/>
<path d="M269.945 101.27L278.139 102.909L286.88 102.363L293.436 100.178L297.26 94.1692V76.6901L296.167 69.043L291.797 63.5808L284.149 61.942H274.862L268.306 64.127L264.482 72.3204V88.707L265.575 96.9004L269.945 101.27ZM272.13 74.5053C272.676 70.7548 274.679 68.3876 278.139 67.4043L290.158 67.9505L293.436 77.7826L293.982 90.3457C292.98 93.9876 290.795 95.9903 287.426 96.3544H275.408C272.895 93.6053 271.62 90.5096 271.584 87.0684L272.13 74.5053Z" fill="white"/>
<path d="M332.332 69.043L327.962 63.5808L320.313 61.942H311.026L304.471 64.127L300.647 72.3204V88.707L301.739 96.9004L306.11 101.27L314.304 102.909L323.045 102.363L329.601 100.178L333.425 94.1692V76.6901L332.332 69.043ZM323.591 96.3542H311.573C309.06 93.6051 307.785 90.5094 307.748 87.0682L308.295 74.5051C308.841 70.7546 310.844 68.3875 314.304 67.4041L326.323 67.9503L329.6 77.7824L330.147 90.3456C329.145 93.9874 326.96 95.9902 323.591 96.3542Z" fill="white"/>
<path d="M317.036 73.9606C315.67 75.1444 314.577 76.4186 313.758 77.7843L312.665 91.4397L318.128 93.6247L322.499 90.8936L321.952 76.6917L317.036 73.9606Z" fill="white"/>
<path d="M217.619 161.597L213.013 163.9L214.165 176.566L217.619 178.869L241.803 176.566L238.349 163.9L217.619 161.597Z" fill="white"/>
<path d="M253.32 124.75L240.652 113.235L202.649 112.084C197.504 114.349 194.049 117.803 192.284 122.447L189.981 201.897L193.436 204.2L241.803 199.594L259.078 196.14V175.414L254.471 154.688L256.774 139.719L253.32 124.75ZM207.255 190.383V132.81C209.059 128.55 211.746 125.479 215.316 123.599H231.439L244.107 127.053L247.561 138.568L244.107 151.233L231.439 155.839L244.107 160.445L248.713 170.808L251.016 185.777L207.255 190.383Z" fill="white"/>
<path d="M230.287 146.627L229.135 137.415C227.868 131.927 224.797 128.857 219.923 128.204C218.578 134.039 217.811 141.331 217.619 150.082H227.984L230.287 146.627Z" fill="white"/>
<path d="M267.514 110.933L266.363 113.236L267.514 203.049L279.031 204.201L319.337 201.898C326.553 201.63 330.392 198.175 330.853 191.535L329.701 173.111C328.818 167.124 326.515 162.135 322.792 158.142L320.488 147.779L323.943 144.325L329.701 143.173L333.156 115.539L328.55 110.933H267.514ZM313.579 131.659L295.153 129.356L289.395 131.659L294.001 140.871L310.124 143.173L312.428 147.779L308.973 150.082L303.214 148.931L296.305 151.234V163.9C298.685 168.774 302.139 171.462 306.669 171.96H319.337L320.489 178.869C319.913 184.588 317.226 188.426 312.428 190.383L284.789 191.535L282.485 123.599L321.64 124.75C320.757 129.241 318.07 131.544 313.579 131.659Z" fill="white"/>
</svg>
