<svg width="40" height="40" viewBox="0 0 40 40" fill="none" xmlns="http://www.w3.org/2000/svg">
<path d="M20.0767 39.9911C17.0408 39.9922 14.0036 40.0489 10.9711 39.8619C9.58947 39.7768 8.21534 39.631 6.86042 39.3138C3.30256 38.4811 1.29929 36.2047 0.594134 32.6765C0.181921 30.6133 0.0784791 28.5216 0.0592604 26.4322C0.0119202 21.2515 -0.0864343 16.069 0.164398 10.8905C0.23025 9.53114 0.396294 8.18025 0.707185 6.84746C1.53783 3.28519 3.8151 1.27519 7.34188 0.581851C9.77573 0.103319 12.2443 0.0429365 14.711 0.022432C18.2414 -0.00698136 21.7726 -0.00811264 25.3032 0.0228562C27.7459 0.0443506 30.1892 0.104874 32.6025 0.572094C37.2244 1.46694 38.9881 4.31268 39.56 8.16045C39.9557 10.8218 39.9929 13.5046 39.9843 16.1875C39.9706 20.4499 40.083 24.7138 39.8548 28.9738C39.7794 30.3814 39.6232 31.7789 39.303 33.1577C38.4755 36.7195 36.1982 38.7288 32.6713 39.4246C30.237 39.9048 27.7687 39.9458 25.3022 39.9857C23.5608 40.0138 21.8186 39.9912 20.0768 39.9912L20.0767 39.9911Z" fill="black"/>
<path d="M20.8317 25.6715C19.8184 26.5785 18.8519 27.4643 17.8561 28.3198C17.6071 28.5336 17.263 28.6494 16.8977 28.8451C16.8977 28.3539 16.8744 27.9804 16.9018 27.6102C17.0027 26.2469 17.1109 24.8838 17.2424 23.5229C17.2614 23.3249 17.3705 23.0859 17.5241 22.9554C20.9835 20.0144 24.4556 17.0866 27.9219 14.1529C28.0647 14.032 28.176 13.8779 28.3373 13.7002C27.8768 13.5071 27.5856 13.6619 27.2918 13.8349C24.5247 15.4641 21.7561 17.091 18.9882 18.7189C17.4263 19.6375 15.8696 20.564 14.2964 21.4649C14.112 21.5706 13.8131 21.6116 13.6075 21.5545C11.8314 21.0607 10.063 20.5428 8.29648 20.0196C7.85911 19.8901 7.30869 19.7839 7.28269 19.2568C7.25641 18.725 7.77927 18.5089 8.21805 18.3464C10.1789 17.62 12.1519 16.9224 14.1202 16.2134C19.6193 14.2322 25.1182 12.2505 30.6173 10.2692C30.7572 10.2189 30.8971 10.1682 31.0387 10.1226C32.0468 9.79747 32.7889 10.2736 32.713 11.2727C32.6601 11.968 32.4654 12.6554 32.3108 13.3418C31.2832 17.9056 30.25 22.4683 29.2165 27.0309C29.0795 27.6355 28.9419 28.2406 28.7825 28.8403C28.472 30.0088 27.611 30.3089 26.5609 29.5966C24.7867 28.3932 23.0279 27.1696 21.262 25.9551C21.1305 25.8646 20.995 25.7789 20.8316 25.6716L20.8317 25.6715Z" fill="white"/>
</svg>
