<svg width="40" height="40" viewBox="0 0 40 40" fill="none" xmlns="http://www.w3.org/2000/svg">
<path d="M20.0766 39.9911C17.0408 39.9922 14.0035 40.0489 10.9711 39.8619C9.58944 39.7768 8.21531 39.631 6.8604 39.3138C3.30255 38.4811 1.29929 36.2047 0.594132 32.6765C0.18192 30.6133 0.0784789 28.5216 0.0592602 26.4322C0.0119202 21.2515 -0.086434 16.069 0.164397 10.8905C0.23025 9.53114 0.396293 8.18025 0.707183 6.84746C1.53782 3.28519 3.81509 1.27519 7.34185 0.581851C9.7757 0.103319 12.2443 0.0429365 14.7109 0.022432C18.2414 -0.00698136 21.7725 -0.00811264 25.3031 0.0228562C27.7458 0.0443506 30.1891 0.104874 32.6024 0.572094C37.2243 1.46694 38.988 4.31268 39.5599 8.16045C39.9556 10.8218 39.9928 13.5046 39.9841 16.1875C39.9704 20.4499 40.0829 24.7138 39.8547 28.9738C39.7792 30.3814 39.6231 31.7789 39.3029 33.1577C38.4753 36.7195 36.1981 38.7288 32.6712 39.4246C30.2369 39.9048 27.7686 39.9458 25.3021 39.9857C23.5607 40.0138 21.8186 39.9912 20.0767 39.9912L20.0766 39.9911Z" fill="black"/>
<path d="M22.4808 16.3709C22.4808 17.3128 22.4779 18.2547 22.4822 19.1965C22.4837 19.554 22.4987 19.9531 22.8463 20.1314C23.2212 20.3237 23.5249 20.0177 23.7782 19.792C25.1728 18.5489 26.0682 16.9423 26.9483 15.3312C27.2741 14.7347 27.5833 14.1227 27.8282 13.4899C28.1089 12.7649 28.629 12.4852 29.3552 12.4825C30.2024 12.4792 31.0499 12.4685 31.8966 12.4849C32.979 12.506 33.2525 12.8858 32.8659 13.9095C32.3481 15.2802 31.5419 16.5008 30.7588 17.7285C30.2532 18.5211 29.7138 19.2921 29.1877 20.0714C28.6286 20.8997 28.6313 21.2119 29.3401 21.9129C30.4123 22.9732 31.4488 24.0639 32.3772 25.2526C32.8251 25.826 33.2833 26.3997 33.4996 27.1144C33.7028 27.7865 33.4839 28.2036 32.8125 28.283C31.6659 28.4184 30.512 28.3917 29.3619 28.3012C28.7436 28.2526 28.3666 27.8084 27.9801 27.3975C26.9488 26.3011 25.9695 25.1522 24.7496 24.2491C24.4456 24.024 24.1313 23.8187 23.7742 23.6929C22.9201 23.3922 22.5087 23.6638 22.4866 24.5673C22.4662 25.391 22.4839 26.2156 22.4796 27.0397C22.475 27.942 22.2482 28.1816 21.3233 28.2746C18.7176 28.537 16.4752 27.6432 14.4492 26.0898C12.1126 24.2982 10.645 21.8232 9.22725 19.3236C8.25289 17.6058 7.4491 15.8063 7.00029 13.8672C6.7804 12.9166 7.05596 12.5193 8.01986 12.4882C8.84259 12.4617 9.66701 12.477 10.4906 12.4821C11.5346 12.4884 11.81 12.6728 12.1563 13.6538C12.8306 15.5651 13.667 17.3989 14.745 19.1168C15.2079 19.8546 15.702 20.5763 16.3872 21.1324C16.9745 21.6091 17.4825 21.4514 17.4959 20.7206C17.5286 18.937 17.6617 17.149 17.4123 15.367C17.3265 14.7545 17.0186 14.2674 16.6537 13.8051C16.4358 13.5289 16.2737 13.2437 16.4386 12.9035C16.6008 12.5689 16.9284 12.4838 17.2738 12.4831C18.7092 12.4805 20.1447 12.4756 21.58 12.486C22.1689 12.4903 22.4916 12.7718 22.481 13.4036C22.4645 14.3924 22.4767 15.3815 22.4767 16.3706H22.4809L22.4808 16.3709Z" fill="#FEFEFE"/>
</svg>
