<svg width="384" height="103" viewBox="0 0 384 103" fill="none" xmlns="http://www.w3.org/2000/svg">
<path d="M333.884 0H50C22.3858 0 0 22.3857 0 50V52.6583C0 80.2726 22.3857 102.658 49.9999 102.658H333.884C361.499 102.658 383.884 80.2726 383.884 52.6584V50C383.884 22.3858 361.499 0 333.884 0Z" fill="url(#paint0_linear_18_198)"/>
<path d="M39.7348 69.7405L29.8386 32.8795H36.3301L43.9338 61.1909L52.083 32.8774L58.134 32.8795L66.3118 61.3412L73.9497 32.8865L80.4412 32.8774L70.5408 69.7339L63.0163 69.7259L55.1111 42.1987L47.1986 69.7325L39.7348 69.7405Z" fill="white"/>
<path d="M84.9183 32.8989H91.0982V69.7164H84.9183V32.8989Z" fill="white"/>
<path d="M104.309 63.9416H119.353V69.7164H98.2576V32.8989H104.309V63.9416Z" fill="white"/>
<path d="M138.36 32.8989C143.432 32.8989 147.651 34.725 150.975 38.2495C154.342 41.7743 156.046 46.1487 156.046 51.3291C156.046 56.4673 154.341 60.8417 150.975 64.4083C147.651 67.9331 143.432 69.7167 138.36 69.7167H123.827V32.8989H138.36ZM138.36 63.9833C141.855 63.9833 144.71 62.7945 146.841 60.4168C149.057 58.0383 150.165 54.9806 150.165 51.3705C150.165 47.6762 149.057 44.7044 146.841 42.3256C144.668 39.9482 141.812 38.759 138.36 38.759H129.922V63.983H138.36V63.9833Z" fill="white"/>
<path d="M188.649 59.1983C188.649 62.2154 187.583 64.7219 185.41 66.7188C183.236 68.7162 180.68 69.7359 177.526 69.7359H161.715V32.8989H176.375C179.4 32.8989 181.958 33.9193 184.046 35.8307C186.177 37.7856 187.199 40.2072 187.199 43.0958C187.199 46.3255 185.921 48.7892 183.45 50.6167C186.688 52.3157 188.648 55.3752 188.648 59.1987L188.649 59.1983ZM167.809 38.5923V48.2793H176.418C179.103 48.2793 181.148 46.1553 181.148 43.4362C181.148 40.717 179.103 38.5927 176.418 38.5927L167.809 38.5923ZM177.568 64.085C180.381 64.085 182.598 61.7897 182.598 58.9014C182.598 56.0132 180.381 53.76 177.568 53.76H167.809V64.085H177.568Z" fill="white"/>
<path d="M200.453 63.9569H216.818V69.7352H194.402V32.8989H216.563V38.6769H200.453V48.2368H215.241V53.9723H200.453V63.9569Z" fill="white"/>
<path d="M243.326 69.7352L235.484 56.3093H228.325V69.7352H222.273V32.8989H237.061C240.385 32.8989 243.198 34.0457 245.457 36.383C247.758 38.6348 248.952 41.4388 248.952 44.7527C248.952 49.4271 246.011 53.7183 241.621 55.4173L250.017 69.7355H243.326L243.326 69.7352ZM228.325 38.5923V50.9142H237.019C240.258 50.9142 242.815 48.1947 242.815 44.7527C242.815 41.3539 240.215 38.5923 237.019 38.5923H228.325Z" fill="white"/>
<path d="M275.673 69.7354L267.874 56.303H260.714V69.7354H254.663V32.8804H269.451C272.775 32.8804 275.588 34.0271 277.846 36.3652C280.148 38.6186 281.341 41.4237 281.341 44.7398C281.341 49.4165 278.401 53.7088 274.011 55.4092L282.406 69.7351H275.673L275.673 69.7354ZM260.714 38.5758V50.9047H269.407C272.647 50.9047 275.203 48.1831 275.203 44.7401C275.203 41.3395 272.605 38.5758 269.407 38.5758H260.714Z" fill="white"/>
<path d="M286.839 32.8833H292.89V69.7356H286.839V32.8833Z" fill="white"/>
<path d="M306.101 63.9569H322.466V69.7352H300.05V32.8989H322.211V38.6769H306.101V48.2368H320.889V53.9723H306.101V63.9569Z" fill="white"/>
<path d="M326.685 61.3512L331.927 58.2934C333.418 62.4551 336.445 64.4931 341.09 64.4931C345.692 64.4931 347.951 62.5404 347.951 59.6528C347.951 58.1235 347.312 57.0196 346.119 56.2553C344.926 55.4486 342.709 54.557 339.555 53.6222C336.018 52.5607 334.271 51.8817 331.799 50.2682C329.413 48.5698 328.22 46.149 328.22 42.8368C328.22 39.5667 329.37 37.0185 331.714 35.1078C334.015 33.1536 336.828 32.2202 340.109 32.2202C346.033 32.2202 350.593 35.278 352.98 40.3303L347.866 43.2614C346.332 39.8639 343.732 38.1231 340.109 38.1231C336.572 38.1231 334.314 39.9061 334.314 42.7091C334.314 45.4265 336.104 46.7002 341.772 48.4418C343.179 48.9088 344.201 49.2488 344.84 49.5033C345.522 49.7156 346.417 50.0977 347.568 50.5647C348.762 51.0325 349.699 51.5838 350.253 52.0515C352.213 53.5797 354.046 56.0169 354.046 59.6103C354.046 62.9225 352.852 65.5978 350.423 67.5509C348.037 69.5047 344.883 70.4385 340.961 70.4385C333.802 70.3964 328.603 66.9996 326.685 61.3512Z" fill="white"/>
<defs>
<linearGradient id="paint0_linear_18_198" x1="0" y1="51.3292" x2="383.884" y2="51.3292" gradientUnits="userSpaceOnUse">
<stop stop-color="#BD0A7F"/>
<stop offset="1" stop-color="#4A287A"/>
</linearGradient>
</defs>
</svg>
