<svg width="384" height="103" viewBox="0 0 384 103" fill="none" xmlns="http://www.w3.org/2000/svg">
<path d="M333.884 0H50C22.3858 0 0 22.3857 0 50V52.319C0 79.9333 22.3858 102.319 50.0001 102.319H333.884C361.499 102.319 383.884 79.9333 383.884 52.3191V50C383.884 22.3858 361.498 0 333.884 0Z" fill="#FED42B"/>
<path d="M181.768 72.6994H188.483L197.843 38.1144V72.6994H205.372V26.9907H194.994L185.634 60.5643L176.274 26.9907H165.693V72.6994H172.205V38.1147L181.768 72.6994ZM236.911 50.0473C236.911 41.9574 232.842 38.9236 224.499 38.9236C219.208 38.9236 215.139 40.5415 212.697 41.9574V48.4295C214.732 46.8116 219.412 45.1934 223.481 45.1934C227.347 45.1934 228.975 46.6091 228.975 50.0473V51.8677H227.755C215.749 51.8677 210.256 55.9126 210.256 62.5869C210.256 69.2612 214.325 73.1039 220.429 73.1039C225.109 73.1039 227.144 71.6883 228.569 70.0701H228.975C228.975 70.879 229.382 72.0927 229.586 72.6994H237.318C237.114 70.0701 236.911 67.2385 236.911 64.6095V50.0476L236.911 50.0473ZM228.976 64.8118C227.958 66.2274 226.127 67.4411 223.278 67.4411C220.023 67.4411 218.395 65.4185 218.395 62.5872C218.395 58.7445 221.04 57.3286 227.958 57.3286H229.179V64.8118H228.976ZM250.545 39.5303H243.22V82.2052H251.155V68.8567C253.19 71.8905 256.039 73.3061 259.498 73.3061C267.23 73.3061 272.521 67.2385 272.521 56.1149C272.521 44.9912 267.434 38.9236 259.905 38.9236C256.242 38.9236 253.19 40.5415 250.952 43.7775L250.545 39.5303ZM257.26 67.2385C253.19 67.2385 250.952 63.8003 250.952 56.3171C250.952 48.6317 253.19 45.1934 257.667 45.1934C261.94 45.1934 264.178 48.6317 264.178 56.1149C264.178 63.8003 261.94 67.2385 257.26 67.2385ZM297.142 72.6994H306.095L293.479 54.9015L304.67 39.5303H296.735L285.544 54.9015V39.5303H277.608V72.6994H285.544V56.5193L297.142 72.6994H297.142ZM332.547 70.4745V64.0025C330.106 65.6203 326.036 67.0363 322.17 67.0363C316.472 67.0363 314.234 64.407 313.827 58.7439H332.751V54.4967C332.751 42.9682 327.664 38.7211 319.728 38.7211C310.165 38.7211 305.485 46.002 305.485 56.1145C305.485 67.643 311.182 73.3058 321.153 73.3058C326.647 73.3058 330.309 72.0924 332.548 70.4742L332.547 70.4745ZM319.728 45.1931C323.594 45.1931 324.815 48.4291 324.815 52.474V53.0807H313.827C314.031 47.8221 316.066 45.1931 319.728 45.1931ZM361.035 45.7998V39.53H334.582V45.7998H343.942V72.6991H351.878V45.7998H361.035Z" fill="black"/>
<path d="M118.689 80.7893C135.578 80.7893 149.211 67.2386 149.211 50.4518C149.211 33.665 135.578 20.1143 118.689 20.1143C101.8 20.1143 88.1674 33.665 88.1674 50.4518C87.9639 67.2386 101.8 80.7893 118.689 80.7893Z" fill="#FED42B"/>
<path d="M53.3721 80.7888C70.2289 80.7888 83.894 67.2062 83.894 50.4513C83.894 33.6963 70.2289 20.1138 53.3721 20.1138C36.5153 20.1138 22.8502 33.6963 22.8502 50.4513C22.8502 67.2062 36.5153 80.7888 53.3721 80.7888Z" fill="#FC3F1D"/>
<path d="M57.8486 37.1027H54.7964C49.5057 37.1027 46.8608 39.7321 46.8608 43.777C46.8608 48.2264 48.6922 50.4513 52.5583 53.0806L55.6105 55.3055L46.8608 68.8562H39.739L48.0819 56.5188C43.1985 53.0806 40.5532 49.8446 40.5532 44.1815C40.5532 37.1027 45.4366 32.2485 54.7967 32.2485H64.1568V68.6536H58.0524V37.1027H57.8489H57.8486Z" fill="white"/>
<mask id="mask0_18_216" style="mask-type:luminance" maskUnits="userSpaceOnUse" x="88" y="20" width="62" height="61">
<path d="M118.689 80.7893C135.578 80.7893 149.211 67.2386 149.211 50.4518C149.211 33.665 135.578 20.1143 118.689 20.1143C101.8 20.1143 88.1674 33.665 88.1674 50.4518C87.9639 67.2386 101.8 80.7893 118.689 80.7893Z" fill="white"/>
</mask>
<g mask="url(#mask0_18_216)">
<path d="M103.632 36.6982L76.7723 71.6877L83.8941 79.7776L103.835 53.485L101.8 67.8446L112.991 71.6873L126.625 50.0464C126.014 54.0913 124.997 63.3949 133.95 66.2265C147.99 70.4736 160.199 45.3948 165.896 32.6529L157.757 28.4058C151.449 41.5521 141.682 56.114 137.816 55.1028C133.95 54.0917 137.409 41.7543 139.648 33.8666V33.6644L127.235 29.4173L112.381 53.485L114.416 40.3387L103.632 36.6982Z" fill="black"/>
</g>
</svg>
